<?xml version="1.0" standalone="no"?>
<!DOCTYPE svg PUBLIC "-//W3C//DTD SVG 20010904//EN"
 "http://www.w3.org/TR/2001/REC-SVG-20010904/DTD/svg10.dtd">
<svg version="1.0" xmlns="http://www.w3.org/2000/svg"
 width="1080.000000pt" height="1080.000000pt" viewBox="0 0 1080.000000 1080.000000"
 preserveAspectRatio="xMidYMid meet">
<metadata>
Created by potrace 1.11, written by Peter Selinger 2001-2013
</metadata>
<g transform="translate(0.000000,1080.000000) scale(0.100000,-0.100000)"
fill="#000000" stroke="none">
<path d="M5200 10794 c-1376 -57 -2647 -612 -3615 -1579 -851 -852 -1392
-1956 -1539 -3140 -53 -426 -53 -935 0 -1350 68 -529 220 -1074 428 -1530 l37
-79 1384 1384 1385 1385 440 -440 440 -440 1500 1500 1500 1500 1774 -1774
c975 -975 1776 -1769 1779 -1765 6 11 22 111 41 264 53 410 53 931 0 1345
-153 1199 -687 2287 -1539 3140 -913 912 -2102 1462 -3385 1564 -142 12 -503
20 -630 15z"/>
</g>
</svg>
